<?xml version="1.0" standalone="no"?>
<!DOCTYPE svg PUBLIC "-//W3C//DTD SVG 1.1//EN" "http://www.w3.org/Graphics/SVG/1.1/DTD/svg11.dtd">
<svg t="1505463727794" class="icon" viewBox="0 0 1024 1024" version="1.1" p-id="1836" width="200" height="200">
	<path d="M511.999 1024C229.717 1024 0 794.283 0 512S229.717 0 511.999 0s512 229.717 512 512c0.074 282.283-229.644 512-512 512z m0-984.648C251.374 39.352 39.351 251.375 39.351 512c0 260.552 212.024 472.65 472.649 472.65S984.649 772.625 984.649 512 772.624 39.352 511.999 39.352z" p-id="1837"></path>
	<path d="M347.08 709.949l-32.964-32.963 362.918-362.918 32.964 32.963L347.08 709.949z" p-id="1838"></path>
	<path d="M709.935 676.957l-32.964 32.964-362.918-362.918 32.964-32.964 362.918 362.918z" p-id="1839"></path>
</svg>