<?xml version="1.0" standalone="no"?>
<!DOCTYPE svg PUBLIC "-//W3C//DTD SVG 1.1//EN" "http://www.w3.org/Graphics/SVG/1.1/DTD/svg11.dtd">
<svg t="1505110817186" class="icon" style="" viewBox="0 0 1024 1024" version="1.1" xmlns="http://www.w3.org/2000/svg" p-id="1457" xmlns:xlink="http://www.w3.org/1999/xlink" width="200" height="200">
	<defs><style type="text/css"></style></defs>
	<path d="M504.35 159.5c-190.53 0-345 154.455-345 345s154.47 345 345 345c190.545 0 345-154.455 345-345s-154.455-345-345-345zM504.35 819.5c-173.97 0-315-141.030-315-315s141.030-315 315-315c173.985 0 315 141.030 315 315s-141.015 315-315 315z" p-id="1458" fill="#646464"></path><path d="M504.35 99.5c-223.665 0-405 181.32-405 405s181.335 405 405 405c223.68 0 405-181.32 405-405s-181.32-405-405-405zM504.35 879.5c-207.105 0-375-167.895-375-375s167.895-375 375-375c207.12 0 375 167.895 375 375s-167.88 375-375 375z" p-id="1459" fill="#646464"></path><path d="M629.96 306.080c-7.17-4.095-16.38-1.59-20.46 5.58l-98.835 172.815-101.505-177.525c-4.095-7.17-13.305-9.675-20.46-5.58-7.17 4.095-9.69 11.115-5.58 18.27l94.095 162.36h-73.41c-8.25 0-15 6.75-15 15s6.75 15 15 15h93.195v75h-93.195c-8.25 0-15 6.75-15 15s6.75 15 15 15h93.195v77.595c0 8.25 6.75 15 15 15s15-6.75 15-15v-77.595h86.805c8.25 0 15-6.75 15-15s-6.75-15-15-15h-86.805v-75h86.805c8.25 0 15-6.75 15-15s-6.75-15-15-15h-69.675l91.41-157.65c4.095-7.155 1.59-14.175-5.58-18.27z" p-id="1460" fill="#646464"></path>
</svg>