<?xml version="1.0" standalone="no"?><!DOCTYPE svg PUBLIC "-//W3C//DTD SVG 1.1//EN" "http://www.w3.org/Graphics/SVG/1.1/DTD/svg11.dtd"><svg t="1505532457376" class="icon" style="" viewBox="0 0 1024 1024" version="1.1" xmlns="http://www.w3.org/2000/svg" p-id="2929" xmlns:xlink="http://www.w3.org/1999/xlink" width="200" height="200"><defs><style type="text/css"></style></defs><path d="M957.44 970.24c0-131.072-56.832-252.416-156.16-335.872h1.024l-17.92-13.824c-5.12-4.096-11.776-6.144-18.432-6.144-9.728 0-18.432 4.096-24.064 11.776-10.24 13.312-7.68 32.256 5.632 42.496 94.72 72.704 149.504 182.272 149.504 301.568H138.24c0-209.408 169.984-379.392 379.392-379.392 161.792 0 293.376-131.584 293.376-293.376S679.424 3.584 517.632 3.584C355.84 3.584 224.256 135.168 224.256 296.96c0 56.832 16.384 111.616 47.104 159.232 26.624 40.96 62.464 74.24 104.96 97.792-82.432 28.16-156.16 80.896-208.896 150.528-58.88 76.8-89.6 168.96-89.6 265.728V1024H957.44v-53.76zM284.16 296.96c0-128.512 104.448-232.96 232.96-232.96s232.96 104.448 232.96 232.96-104.448 232.96-232.96 232.96c-128 0.512-232.96-103.936-232.96-232.96z" fill="" p-id="2930"></path></svg>